<svg width="74" height="74" viewBox="0 0 74 74" fill="none" xmlns="http://www.w3.org/2000/svg">
<g clip-path="url(#clip0_881_1896)">
<path d="M32 72C26.0985 72 20.3119 70.368 15.28 67.2845C10.2482 64.2009 6.16702 59.786 3.48779 54.5277C0.808558 49.2694 -0.364381 43.3726 0.098643 37.4893C0.561671 31.606 2.64263 25.9653 6.11145 21.1909C9.58028 16.4164 14.3018 12.6943 19.7541 10.4359C25.2064 8.17744 31.177 7.47077 37.0059 8.39397C42.8348 9.31717 48.2948 11.8343 52.7823 15.667C57.2699 19.4997 60.6101 24.4988 62.4338 30.1115L59.3904 31.1003C57.7491 26.0489 54.7429 21.5498 50.7041 18.1003C46.6653 14.6509 41.7513 12.3855 36.5053 11.5546C31.2593 10.7237 25.8858 11.3597 20.9787 13.3923C16.0717 15.4248 11.8222 18.7748 8.70031 23.0718C5.57837 27.3688 3.7055 32.4454 3.28878 37.7404C2.87205 43.0354 3.9277 48.3425 6.33901 53.0749C8.75032 57.8074 12.4234 61.7809 16.952 64.556C21.4807 67.3312 26.6886 68.8 32 68.8L32 72Z" fill="black"/>
<path d="M40.404 37.2C41.272 37.2 42.0233 37.3447 42.658 37.634C43.302 37.9233 43.7967 38.334 44.142 38.866C44.4873 39.398 44.66 40.028 44.66 40.756C44.66 41.4747 44.4873 42.1047 44.142 42.646C43.7967 43.178 43.302 43.5887 42.658 43.878C42.0233 44.158 41.272 44.298 40.404 44.298H38.43V47H36.162V37.2H40.404ZM40.278 42.45C40.9593 42.45 41.4773 42.3053 41.832 42.016C42.1867 41.7173 42.364 41.2973 42.364 40.756C42.364 40.2053 42.1867 39.7853 41.832 39.496C41.4773 39.1973 40.9593 39.048 40.278 39.048H38.43V42.45H40.278ZM50.6019 47.168C49.5846 47.168 48.6652 46.9487 47.8439 46.51C47.0319 46.0713 46.3926 45.4693 45.9259 44.704C45.4686 43.9293 45.2399 43.0613 45.2399 42.1C45.2399 41.1387 45.4686 40.2753 45.9259 39.51C46.3926 38.7353 47.0319 38.1287 47.8439 37.69C48.6652 37.2513 49.5846 37.032 50.6019 37.032C51.6192 37.032 52.5339 37.2513 53.3459 37.69C54.1579 38.1287 54.7972 38.7353 55.2639 39.51C55.7306 40.2753 55.9639 41.1387 55.9639 42.1C55.9639 43.0613 55.7306 43.9293 55.2639 44.704C54.7972 45.4693 54.1579 46.0713 53.3459 46.51C52.5339 46.9487 51.6192 47.168 50.6019 47.168ZM50.6019 45.236C51.1806 45.236 51.7032 45.1053 52.1699 44.844C52.6366 44.5733 53.0006 44.2 53.2619 43.724C53.5326 43.248 53.6679 42.7067 53.6679 42.1C53.6679 41.4933 53.5326 40.952 53.2619 40.476C53.0006 40 52.6366 39.6313 52.1699 39.37C51.7032 39.0993 51.1806 38.964 50.6019 38.964C50.0232 38.964 49.5006 39.0993 49.0339 39.37C48.5672 39.6313 48.1986 40 47.9279 40.476C47.6666 40.952 47.5359 41.4933 47.5359 42.1C47.5359 42.7067 47.6666 43.248 47.9279 43.724C48.1986 44.2 48.5672 44.5733 49.0339 44.844C49.5006 45.1053 50.0232 45.236 50.6019 45.236ZM57.1084 37.2H61.5604C62.6244 37.2 63.5624 37.4053 64.3744 37.816C65.1957 38.2173 65.8304 38.7867 66.2784 39.524C66.7357 40.2613 66.9644 41.12 66.9644 42.1C66.9644 43.08 66.7357 43.9387 66.2784 44.676C65.8304 45.4133 65.1957 45.9873 64.3744 46.398C63.5624 46.7993 62.6244 47 61.5604 47H57.1084V37.2ZM61.4484 45.138C62.4284 45.138 63.2077 44.8673 63.7864 44.326C64.3744 43.7753 64.6684 43.0333 64.6684 42.1C64.6684 41.1667 64.3744 40.4293 63.7864 39.888C63.2077 39.3373 62.4284 39.062 61.4484 39.062H59.3764V45.138H61.4484Z" fill="#CD4631"/>
<path d="M40.908 60.168C39.8907 60.168 38.9713 59.9487 38.15 59.51C37.338 59.0713 36.6987 58.4693 36.232 57.704C35.7747 56.9293 35.546 56.0613 35.546 55.1C35.546 54.1387 35.7747 53.2753 36.232 52.51C36.6987 51.7353 37.338 51.1287 38.15 50.69C38.9713 50.2513 39.8907 50.032 40.908 50.032C41.9253 50.032 42.84 50.2513 43.652 50.69C44.464 51.1287 45.1033 51.7353 45.57 52.51C46.0367 53.2753 46.27 54.1387 46.27 55.1C46.27 56.0613 46.0367 56.9293 45.57 57.704C45.1033 58.4693 44.464 59.0713 43.652 59.51C42.84 59.9487 41.9253 60.168 40.908 60.168ZM40.908 58.236C41.4867 58.236 42.0093 58.1053 42.476 57.844C42.9427 57.5733 43.3067 57.2 43.568 56.724C43.8387 56.248 43.974 55.7067 43.974 55.1C43.974 54.4933 43.8387 53.952 43.568 53.476C43.3067 53 42.9427 52.6313 42.476 52.37C42.0093 52.0993 41.4867 51.964 40.908 51.964C40.3293 51.964 39.8067 52.0993 39.34 52.37C38.8733 52.6313 38.5047 53 38.234 53.476C37.9727 53.952 37.842 54.4933 37.842 55.1C37.842 55.7067 37.9727 56.248 38.234 56.724C38.5047 57.2 38.8733 57.5733 39.34 57.844C39.8067 58.1053 40.3293 58.236 40.908 58.236ZM51.9785 51.964C51.1945 51.964 50.6018 52.1367 50.2005 52.482C49.7992 52.818 49.5985 53.3267 49.5985 54.008V54.61H53.6305V56.43H49.5985V60H47.3305V54.022C47.3305 52.762 47.7225 51.782 48.5065 51.082C49.2998 50.382 50.4058 50.032 51.8245 50.032C52.3845 50.032 52.9118 50.0927 53.4065 50.214C53.9012 50.326 54.3305 50.494 54.6945 50.718L53.9945 52.51C53.4345 52.146 52.7625 51.964 51.9785 51.964ZM40.852 73.168C39.8533 73.168 38.948 72.9533 38.136 72.524C37.3333 72.0853 36.6987 71.4833 36.232 70.718C35.7747 69.9433 35.546 69.0707 35.546 68.1C35.546 67.1293 35.7747 66.2613 36.232 65.496C36.6987 64.7213 37.3333 64.1193 38.136 63.69C38.948 63.2513 39.858 63.032 40.866 63.032C41.7153 63.032 42.4807 63.1813 43.162 63.48C43.8527 63.7787 44.4313 64.208 44.898 64.768L43.442 66.112C42.7793 65.3467 41.958 64.964 40.978 64.964C40.3713 64.964 39.83 65.0993 39.354 65.37C38.878 65.6313 38.5047 66 38.234 66.476C37.9727 66.952 37.842 67.4933 37.842 68.1C37.842 68.7067 37.9727 69.248 38.234 69.724C38.5047 70.2 38.878 70.5733 39.354 70.844C39.83 71.1053 40.3713 71.236 40.978 71.236C41.958 71.236 42.7793 70.8487 43.442 70.074L44.898 71.418C44.4313 71.9873 43.8527 72.4213 43.162 72.72C42.4713 73.0187 41.7013 73.168 40.852 73.168ZM50.2796 63.032C51.1849 63.032 51.9736 63.2093 52.6456 63.564C53.3176 63.9187 53.8402 64.4413 54.2136 65.132C54.5869 65.8227 54.7736 66.658 54.7736 67.638V73H52.5056V70.648H48.0256V73H45.7856V67.638C45.7856 66.658 45.9722 65.8227 46.3456 65.132C46.7189 64.4413 47.2416 63.9187 47.9136 63.564C48.5856 63.2093 49.3742 63.032 50.2796 63.032ZM52.5056 68.828V67.428C52.5056 66.616 52.3049 66.0047 51.9036 65.594C51.5022 65.174 50.9562 64.964 50.2656 64.964C49.5656 64.964 49.0149 65.174 48.6136 65.594C48.2216 66.0047 48.0256 66.616 48.0256 67.428V68.828H52.5056ZM59.6722 73.168C58.8975 73.168 58.1462 73.0653 57.4182 72.86C56.6995 72.6453 56.1208 72.37 55.6822 72.034L56.4522 70.326C56.8722 70.634 57.3715 70.8813 57.9502 71.068C58.5288 71.2547 59.1075 71.348 59.6862 71.348C60.3302 71.348 60.8062 71.2547 61.1142 71.068C61.4222 70.872 61.5762 70.6153 61.5762 70.298C61.5762 70.0647 61.4828 69.8733 61.2962 69.724C61.1188 69.5653 60.8855 69.4393 60.5962 69.346C60.3162 69.2527 59.9335 69.15 59.4482 69.038C58.7015 68.8607 58.0902 68.6833 57.6142 68.506C57.1382 68.3287 56.7275 68.044 56.3822 67.652C56.0462 67.26 55.8782 66.7373 55.8782 66.084C55.8782 65.5147 56.0322 65.0013 56.3402 64.544C56.6482 64.0773 57.1102 63.7087 57.7262 63.438C58.3515 63.1673 59.1122 63.032 60.0082 63.032C60.6335 63.032 61.2448 63.1067 61.8422 63.256C62.4395 63.4053 62.9622 63.62 63.4102 63.9L62.7102 65.622C61.8048 65.1087 60.8995 64.852 59.9942 64.852C59.3595 64.852 58.8882 64.9547 58.5802 65.16C58.2815 65.3653 58.1322 65.636 58.1322 65.972C58.1322 66.308 58.3048 66.56 58.6502 66.728C59.0048 66.8867 59.5415 67.0453 60.2602 67.204C61.0068 67.3813 61.6182 67.5587 62.0942 67.736C62.5702 67.9133 62.9762 68.1933 63.3122 68.576C63.6575 68.9587 63.8302 69.4767 63.8302 70.13C63.8302 70.69 63.6715 71.2033 63.3542 71.67C63.0462 72.1273 62.5795 72.4913 61.9542 72.762C61.3288 73.0327 60.5682 73.168 59.6722 73.168ZM71.8642 65.944C71.0242 65.4587 70.1235 65.146 69.1622 65.006V73H66.8942V65.006C65.9329 65.146 65.0275 65.4587 64.1782 65.944L63.4082 64.25C64.0802 63.8487 64.8082 63.5453 65.5922 63.34C66.3762 63.1347 67.1835 63.032 68.0142 63.032C68.8542 63.032 69.6662 63.1347 70.4502 63.34C71.2435 63.5453 71.9715 63.8487 72.6342 64.25L71.8642 65.944Z" fill="black"/>
</g>
<defs>
<clipPath id="clip0_881_1896">
<rect width="74" height="74" fill="white"/>
</clipPath>
</defs>
</svg>
